HIERARCHY
ROOT Haolin_28_06:Solving:Hips
{
	OFFSET 0.000000 0.000000 0.000000
	CHANNELS 6 Xposition Yposition Zposition Xrotation Yrotation Zrotation
	JOINT Haolin_28_06:Solving:Spine
	{
		OFFSET 0.000000 -12.181966 2.015561
		CHANNELS 6 Xposition Yposition Zposition Xrotation Yrotation Zrotation
		JOINT Haolin_28_06:Solving:Spine1
		{
			OFFSET 0.000000 -8.890296 1.567602
			CHANNELS 6 Xposition Yposition Zposition Xrotation Yrotation Zrotation
			JOINT Haolin_28_06:Solving:Spine2
			{
				OFFSET 0.000000 -8.993092 0.786796
				CHANNELS 6 Xposition Yposition Zposition Xrotation Yrotation Zrotation
				JOINT Haolin_28_06:Solving:Spine3
				{
					OFFSET 0.000000 -9.027443 0.000000
					CHANNELS 6 Xposition Yposition Zposition Xrotation Yrotation Zrotation
					JOINT Haolin_28_06:Solving:Neck
					{
						OFFSET 0.000000 -11.606712 -1.160669
						CHANNELS 6 Xposition Yposition Zposition Xrotation Yrotation Zrotation
						JOINT Haolin_28_06:Solving:Neck1
						{
							OFFSET 0.000000 -7.471592 -0.653680
							CHANNELS 6 Xposition Yposition Zposition Xrotation Yrotation Zrotation
							JOINT Haolin_28_06:Solving:Head
							{
								OFFSET 0.000000 -7.386181 -1.302382
								CHANNELS 6 Xposition Yposition Zposition Xrotation Yrotation Zrotation
								JOINT Haolin_28_06:Solving:HeadEnd
								{
									OFFSET 0.000000 -9.728081 0.000002
									CHANNELS 6 Xposition Yposition Zposition Xrotation Yrotation Zrotation
									End Site
									{
										OFFSET 0.000000 -9.728081 0.000002
									}
								}
							}
						}
					}
					JOINT Haolin_28_06:Solving:RightShoulder
					{
						OFFSET 0.000000 -8.290508 -5.270916
						CHANNELS 6 Xposition Yposition Zposition Xrotation Yrotation Zrotation
						JOINT Haolin_28_06:Solving:RightArm
						{
							OFFSET -19.261074 -0.000008 0.000000
							CHANNELS 6 Xposition Yposition Zposition Xrotation Yrotation Zrotation
							JOINT Haolin_28_06:Solving:RightForeArm
							{
								OFFSET -30.691700 -0.000011 0.000000
								CHANNELS 6 Xposition Yposition Zposition Xrotation Yrotation Zrotation
								JOINT Haolin_28_06:Solving:RightHand
								{
									OFFSET -20.216934 -0.000008 0.000000
									CHANNELS 6 Xposition Yposition Zposition Xrotation Yrotation Zrotation
									JOINT Haolin_28_06:Solving:RightHandThumb1
									{
										OFFSET -4.948814 2.881329 -3.679893
										CHANNELS 6 Xposition Yposition Zposition Xrotation Yrotation Zrotation
										End Site
										{
											OFFSET -7.039886 -0.000004 -7.104978
										}
									}
									JOINT Haolin_28_06:Solving:RightHandMiddle1
									{
										OFFSET -13.196846 -0.000004 0.084595
										CHANNELS 6 Xposition Yposition Zposition Xrotation Yrotation Zrotation
										End Site
										{
											OFFSET -10.002037 -0.000004 0.000000
										}
									}
								}
							}
						}
					}
					JOINT Haolin_28_06:Solving:LeftShoulder
					{
						OFFSET 0.000000 -8.290508 -5.270916
						CHANNELS 6 Xposition Yposition Zposition Xrotation Yrotation Zrotation
						JOINT Haolin_28_06:Solving:LeftArm
						{
							OFFSET 19.261074 -0.000008 0.000000
							CHANNELS 6 Xposition Yposition Zposition Xrotation Yrotation Zrotation
							JOINT Haolin_28_06:Solving:LeftForeArm
							{
								OFFSET 30.691700 -0.000011 0.000000
								CHANNELS 6 Xposition Yposition Zposition Xrotation Yrotation Zrotation
								JOINT Haolin_28_06:Solving:LeftHand
								{
									OFFSET 20.216934 -0.000008 0.000000
									CHANNELS 6 Xposition Yposition Zposition Xrotation Yrotation Zrotation
									JOINT Haolin_28_06:Solving:LeftHandThumb1
									{
										OFFSET 4.948814 2.881329 -3.679893
										CHANNELS 6 Xposition Yposition Zposition Xrotation Yrotation Zrotation
										End Site
										{
											OFFSET 7.039886 -0.000004 -7.104978
										}
									}
									JOINT Haolin_28_06:Solving:LeftHandMiddle1
									{
										OFFSET 13.196846 -0.000004 0.084595
										CHANNELS 6 Xposition Yposition Zposition Xrotation Yrotation Zrotation
										End Site
										{
											OFFSET 10.002037 -0.000004 0.000000
										}
									}
								}
							}
						}
					}
				}
			}
		}
	}
	JOINT Haolin_28_06:Solving:RightUpLeg
	{
		OFFSET -10.083070 0.000000 0.000000
		CHANNELS 6 Xposition Yposition Zposition Xrotation Yrotation Zrotation
		JOINT Haolin_28_06:Solving:RightLeg
		{
			OFFSET 0.000000 47.042522 -0.000008
			CHANNELS 6 Xposition Yposition Zposition Xrotation Yrotation Zrotation
			JOINT Haolin_28_06:Solving:RightFoot
			{
				OFFSET 0.000000 38.766415 -0.000006
				CHANNELS 6 Xposition Yposition Zposition Xrotation Yrotation Zrotation
				JOINT Haolin_28_06:Solving:RightForeFoot
				{
					OFFSET 0.000000 3.531212 -0.000000
					CHANNELS 6 Xposition Yposition Zposition Xrotation Yrotation Zrotation
					JOINT Haolin_28_06:Solving:RightToeBase
					{
						OFFSET 0.000000 0.000000 -13.829352
						CHANNELS 6 Xposition Yposition Zposition Xrotation Yrotation Zrotation
						JOINT Haolin_28_06:Solving:RightToeBaseEnd
						{
							OFFSET 0.000000 0.000000 -4.034167
							CHANNELS 6 Xposition Yposition Zposition Xrotation Yrotation Zrotation
							End Site
							{
								OFFSET 0.000000 -4.034164 0.000004
							}
						}
					}
				}
			}
		}
	}
	JOINT Haolin_28_06:Solving:LeftUpLeg
	{
		OFFSET 10.083070 0.000000 0.000000
		CHANNELS 6 Xposition Yposition Zposition Xrotation Yrotation Zrotation
		JOINT Haolin_28_06:Solving:LeftLeg
		{
			OFFSET 0.000000 47.042522 -0.000008
			CHANNELS 6 Xposition Yposition Zposition Xrotation Yrotation Zrotation
			JOINT Haolin_28_06:Solving:LeftFoot
			{
				OFFSET 0.000000 38.766415 -0.000006
				CHANNELS 6 Xposition Yposition Zposition Xrotation Yrotation Zrotation
				JOINT Haolin_28_06:Solving:LeftForeFoot
				{
					OFFSET 0.000000 3.531212 -0.000000
					CHANNELS 6 Xposition Yposition Zposition Xrotation Yrotation Zrotation
					JOINT Haolin_28_06:Solving:LeftToeBase
					{
						OFFSET 0.000000 0.000000 -13.829352
						CHANNELS 6 Xposition Yposition Zposition Xrotation Yrotation Zrotation
						JOINT Haolin_28_06:Solving:LeftToeBaseEnd
						{
							OFFSET 0.000000 0.000000 -4.855067
							CHANNELS 6 Xposition Yposition Zposition Xrotation Yrotation Zrotation
							End Site
							{
								OFFSET 0.000000 -4.855064 0.000004
							}
						}
					}
				}
			}
		}
	}
}
MOTION
Frames: 4
Frame Time: 0.041667
-12.334586 47.737335 -93.939110 -67.593430 -39.650467 -165.405229 0.000002 -12.181963 2.015568 15.221317 -0.594471 -7.064777 0.000006 -8.890305 1.567601 1.012639 -0.206873 -1.297707 0.000001 -8.993080 0.786803 0.737339 -13.077174 1.881705 0.000000 -9.027455 0.000003 2.802873 -4.751074 9.803239 0.000002 -11.606722 -1.160662 -0.594039 -7.455172 1.806864 -0.000003 -7.471572 -0.653673 2.116302 -9.015548 -1.669273 0.000002 -7.386216 -1.302399 6.957051 -0.515494 -1.262966 -0.000000 -9.728096 0.000004 -0.000001 0.000001 -0.000000 0.000004 -8.290508 -5.270915 -0.000011 19.090647 21.027724 -19.261074 -0.000037 -0.000007 -106.544285 -34.729661 -115.312199 -30.691687 -0.000013 0.000009 23.666237 -62.481566 21.240177 -20.216917 -0.000001 0.000002 -0.285773 2.416748 6.745695 -4.948809 2.881314 -3.679886 -0.000004 -0.000007 0.000006 -13.196836 0.000022 0.084598 -0.000000 -0.000008 0.000003 0.000005 -8.290508 -5.270915 -0.000008 -13.425264 -3.239387 19.261070 -0.000015 0.000000 -4.684299 35.811112 80.679103 30.691704 -0.000018 -0.000005 -3.935713 19.179701 1.294825 20.216908 -0.000022 -0.000004 0.098045 3.016798 -1.862329 4.948798 2.881318 -3.679884 -0.000006 0.000000 -0.000002 13.196852 -0.000003 0.084588 -0.000002 -0.000001 -0.000002 -10.083068 0.000002 0.000002 22.664070 25.732980 -2.090659 -0.000004 47.042542 -0.000004 2.832556 -0.000004 -0.000000 0.000002 38.766422 -0.000005 1.770813 21.989555 -0.195480 0.000002 3.531219 0.000000 0.000000 0.000000 0.000000 0.000010 -0.000001 -13.829356 -1.042716 -0.000000 -0.000000 0.000013 0.000000 -4.034169 0.000000 0.000000 0.000000 10.083069 0.000006 0.000003 10.806468 -7.046889 -4.446085 0.000000 47.042500 -0.000004 7.253534 -0.000004 -0.000000 0.000002 38.766422 -0.000004 6.246572 -2.479753 9.978538 -0.000002 3.531220 -0.000001 0.000001 -0.000002 0.000002 0.000000 0.000013 -13.829351 1.926571 -0.000003 0.000001 0.000001 -0.000001 -4.855071 -0.000002 0.000001 0.000000 
-12.334234 47.643909 -93.935776 -67.578643 -39.392669 -165.528050 0.000005 -12.181952 2.015553 15.185022 -0.598779 -7.078164 0.000002 -8.890306 1.567612 1.018822 -0.203203 -1.305273 -0.000001 -8.993091 0.786795 0.742374 -13.031900 1.872616 0.000001 -9.027449 0.000006 2.794933 -4.757865 9.832710 0.000003 -11.606738 -1.160650 -0.554609 -7.421844 1.823827 -0.000001 -7.471617 -0.653677 2.129789 -9.014582 -1.635328 0.000000 -7.386251 -1.302400 6.962896 -0.518420 -1.223230 0.000000 -9.728096 0.000004 -0.000002 -0.000000 0.000000 0.000002 -8.290516 -5.270905 -0.000010 19.233551 21.078698 -19.261068 0.000006 -0.000003 -107.026366 -34.443370 -115.156402 -30.691700 -0.000021 0.000007 21.919481 -62.304562 19.610463 -20.216925 0.000017 -0.000004 -0.279988 2.391404 6.679780 -4.948805 2.881322 -3.679886 0.000000 -0.000000 0.000003 -13.196851 0.000009 0.084594 -0.000001 -0.000001 0.000003 0.000005 -8.290516 -5.270904 -0.000009 -13.374350 -3.231868 19.261076 0.000029 -0.000008 -4.532682 35.434577 80.624175 30.691711 -0.000008 -0.000004 -3.915755 19.051102 1.279932 20.216923 -0.000002 0.000003 0.094752 3.064983 -1.771595 4.948786 2.881326 -3.679872 -0.000004 0.000005 -0.000007 13.196821 -0.000009 0.084591 -0.000001 -0.000005 -0.000002 -10.083064 0.000011 -0.000003 22.831695 26.010716 -2.043241 0.000006 47.042522 -0.000013 2.734765 -0.000006 0.000000 -0.000001 38.766434 -0.000010 1.787491 22.026127 -0.217075 0.000010 3.531212 0.000002 0.000000 -0.000000 -0.000001 -0.000010 0.000015 -13.829352 -0.982423 0.000000 -0.000000 0.000005 -0.000007 -4.034168 0.000001 0.000000 -0.000000 10.083070 0.000004 -0.000010 10.902554 -6.936545 -4.335927 -0.000003 47.042534 -0.000003 7.247627 0.000003 0.000000 -0.000007 38.766430 -0.000006 6.232905 -2.309480 9.924997 -0.000001 3.531212 0.000001 0.000001 -0.000002 0.000000 -0.000001 0.000007 -13.829356 1.907254 0.000001 0.000001 -0.000001 -0.000008 -4.855062 0.000000 0.000003 -0.000001 
-12.336614 47.553757 -93.934113 -67.558890 -39.154363 -165.645160 0.000003 -12.181977 2.015564 15.159221 -0.602735 -7.086790 -0.000001 -8.890287 1.567608 1.021972 -0.200855 -1.311804 -0.000000 -8.993096 0.786790 0.742310 -12.999517 1.875378 0.000001 -9.027459 0.000002 2.792750 -4.755341 9.838251 0.000000 -11.606701 -1.160663 -0.539981 -7.380235 1.814656 0.000002 -7.471572 -0.653681 2.159350 -8.999271 -1.582185 0.000000 -7.386151 -1.302388 6.956161 -0.521620 -1.178624 0.000000 -9.728111 0.000000 0.000001 -0.000000 0.000000 -0.000005 -8.290535 -5.270903 -0.000010 19.321333 21.127831 -19.261055 0.000000 0.000001 -107.389985 -34.226467 -114.985156 -30.691685 -0.000025 0.000004 20.532203 -62.147065 18.321561 -20.216930 -0.000012 0.000013 -0.280058 2.420880 6.600778 -4.948795 2.881298 -3.679876 -0.000004 0.000002 0.000006 -13.196841 -0.000043 0.084596 0.000002 0.000001 0.000006 -0.000005 -8.290535 -5.270903 -0.000007 -13.324746 -3.215746 19.261084 0.000002 -0.000000 -4.364233 35.153758 80.559178 30.691711 -0.000009 -0.000002 -3.728464 18.946711 1.212120 20.216906 -0.000021 0.000003 0.089071 3.075725 -1.659656 4.948789 2.881321 -3.679887 0.000007 -0.000005 -0.000004 13.196840 -0.000008 0.084587 0.000006 -0.000005 0.000002 -10.083071 -0.000021 0.000001 22.985417 26.267376 -1.989087 -0.000008 47.042500 -0.000008 2.646093 -0.000005 0.000000 -0.000001 38.766426 -0.000002 1.799571 22.078100 -0.260635 0.000014 3.531212 -0.000000 -0.000002 -0.000000 0.000000 0.000005 -0.000003 -13.829355 -0.928156 0.000000 -0.000001 0.000002 -0.000008 -4.034172 -0.000001 0.000000 0.000001 10.083072 -0.000025 0.000000 11.000920 -6.800889 -4.220610 0.000001 47.042511 -0.000008 7.239960 0.000002 -0.000001 -0.000003 38.766407 -0.000001 6.226307 -2.194440 9.893906 0.000001 3.531204 -0.000008 -0.000000 0.000005 0.000001 -0.000001 0.000003 -13.829350 1.994973 -0.000002 -0.000001 0.000000 -0.000001 -4.855066 -0.000001 0.000000 0.000000 
-12.341955 47.467663 -93.931976 -67.545537 -38.928923 -165.768828 0.000002 -12.181970 2.015558 15.125732 -0.602994 -7.083609 -0.000005 -8.890274 1.567594 1.019714 -0.198276 -1.317144 -0.000007 -8.993098 0.786798 0.748191 -12.951262 1.873217 -0.000002 -9.027434 -0.000000 2.797645 -4.756113 9.839748 0.000000 -11.606750 -1.160668 -0.511843 -7.330096 1.831038 0.000002 -7.471585 -0.653679 2.131758 -8.986165 -1.562090 -0.000000 -7.386184 -1.302383 6.951347 -0.523746 -1.137954 0.000001 -9.728081 0.000004 0.000000 -0.000000 0.000000 -0.000005 -8.290558 -5.270913 -0.000005 19.395934 21.159974 -19.261080 0.000021 0.000010 -107.668069 -34.044088 -114.824632 -30.691704 -0.000024 0.000005 19.393368 -62.038704 17.272082 -20.216921 0.000009 0.000001 -0.277234 2.483814 6.370812 -4.948803 2.881304 -3.679886 0.000003 -0.000009 0.000003 -13.196837 -0.000015 0.084589 0.000002 0.000001 0.000002 -0.000004 -8.290562 -5.270917 -0.000006 -13.278120 -3.208855 19.261070 0.000006 0.000005 -4.172569 35.042262 80.467565 30.691687 -0.000011 0.000003 -3.512992 18.857203 1.136716 20.216906 -0.000012 -0.000005 0.085415 3.137511 -1.560029 4.948786 2.881336 -3.679881 -0.000001 -0.000007 -0.000008 13.196837 -0.000000 0.084594 -0.000005 -0.000005 -0.000001 -10.083069 0.000006 0.000001 23.115448 26.553692 -1.925152 -0.000002 47.042526 -0.000004 2.576743 -0.000001 0.000000 0.000001 38.766430 -0.000004 1.798741 22.090474 -0.291157 -0.000000 3.531204 -0.000003 -0.000001 0.000000 0.000001 0.000010 0.000005 -13.829353 -0.910765 0.000000 -0.000000 0.000008 -0.000008 -4.034168 -0.000001 0.000000 0.000001 10.083072 -0.000003 -0.000007 11.092883 -6.548983 -4.089233 0.000001 47.042526 -0.000005 7.241528 -0.000009 0.000000 -0.000005 38.766418 -0.000001 6.231359 -2.233794 9.881517 -0.000001 3.531204 -0.000013 -0.000000 0.000005 -0.000000 -0.000005 0.000004 -13.829354 1.678409 -0.000000 0.000001 0.000002 -0.000008 -4.855069 -0.000001 -0.000000 0.000000 
